squats_2_grf
version=1
nRows=34
nColumns=19
inDegrees=no
endheader
time	ground_force_left_vx	ground_force_left_vy	ground_force_left_vz	ground_force_left_px	ground_force_left_py	ground_force_left_pz	ground_force_left_mx	ground_force_left_my	ground_force_left_mz	ground_force_right_vx	ground_force_right_vy	ground_force_right_vz	ground_force_right_px	ground_force_right_py	ground_force_right_pz	ground_force_right_mx	ground_force_right_my	ground_force_right_mz
      1.32900000	     19.91801187	    405.21378233	     18.19552063	     -2.28376756	      0.01022276	      2.31397783	      0.01172376	     -5.97932932	      0.01495201	     -0.64776712	    437.74874238	    -28.36030925	     -2.29315735	      0.01048365	      2.69104279	     -0.01285316	     10.41435237	      0.03111944
      1.33000000	     19.95629384	    404.90769215	     18.09789086	     -2.28364242	      0.01022302	      2.31398741	      0.01174013	     -5.98767874	      0.01497289	     -1.13267418	    438.42687942	    -28.43324992	     -2.29301723	      0.01048375	      2.69106903	     -0.01287530	     10.43229125	      0.03117304
      1.33100000	     19.97606560	    404.63364462	     17.99662499	     -2.28351380	      0.01022330	      2.31399653	      0.01176160	     -5.99863073	      0.01500028	     -1.61180392	    439.09844899	    -28.49733978	     -2.29288011	      0.01048384	      2.69109320	     -0.01289699	     10.44986434	      0.03122555
      1.33200000	     19.97694899	    404.39644022	     17.89191527	     -2.28338200	      0.01022358	      2.31400524	      0.01178830	     -6.01224718	      0.01503433	     -2.08446233	    439.76153875	    -28.55274280	     -2.29274611	      0.01048394	      2.69111538	     -0.01291819	     10.46704571	      0.03127689
      1.33300000	     19.95858306	    404.20059940	     17.78400643	     -2.28324733	      0.01022386	      2.31401358	      0.01182032	     -6.02857567	      0.01507516	     -2.54997785	    440.41429906	    -28.59966494	     -2.29261532	      0.01048404	      2.69113563	     -0.01293888	     10.48380981	      0.03132699
      1.33400000	     19.92061716	    404.05032207	     17.67319541	     -2.28311012	      0.01022415	      2.31402157	      0.01185771	     -6.04764906	      0.01512286	     -3.00770082	    441.05493924	    -28.63834793	     -2.29248785	      0.01048415	      2.69115403	     -0.01295903	     10.50013159	      0.03137576
      1.33500000	     19.86270488	    403.94945188	     17.55983084	     -2.28297064	      0.01022445	      2.31402923	      0.01190053	     -6.06948520	      0.01517746	     -3.45700357	    441.68172391	    -28.66906306	     -2.29236376	      0.01048425	      2.69117065	     -0.01297860	     10.51598674	      0.03142314
      1.33600000	     19.78449914	    403.90144540	     17.44431193	     -2.28282919	      0.01022474	      2.31403658	      0.01194877	     -6.09408684	      0.01523898	     -3.89728118	    442.29296951	    -28.69210500	     -2.29224313	      0.01048435	      2.69118560	     -0.01299756	     10.53135187	      0.03146905
      1.33700000	     19.68564851	    403.90934652	     17.32708714	     -2.28268604	      0.01022504	      2.31404362	      0.01200240	     -6.12144163	      0.01530738	     -4.32795303	    442.88704136	    -28.70778590	     -2.29212597	      0.01048446	      2.69119896	     -0.01301589	     10.54620472	      0.03151343
      1.33800000	     19.56579506	    403.97576584	     17.20865234	     -2.28254144	      0.01022534	      2.31405034	      0.01206138	     -6.15152228	      0.01538260	     -4.74846490	    443.46235122	    -28.71642961	     -2.29201233	      0.01048456	      2.69121082	     -0.01303356	     10.56052432	      0.03155622
      1.33900000	     19.42457373	    404.10286523	     17.08954865	     -2.28239562	      0.01022564	      2.31405673	      0.01212562	     -6.18428681	      0.01546453	     -5.15829171	    444.01735578	    -28.71836615	     -2.29190218	      0.01048467	      2.69122128	     -0.01305055	     10.57429120	      0.03159736
      1.34000000	     19.26161347	    404.29234710	     16.97035991	     -2.28224881	      0.01022595	      2.31406277	      0.01219502	     -6.21967892	      0.01555304	     -5.55694068	    444.55055597	    -28.71392656	     -2.29179552	      0.01048477	      2.69123043	     -0.01306684	     10.58748756	      0.03163679
      1.34100000	     19.07654010	    404.54544834	     16.85170971	     -2.28210118	      0.01022625	      2.31406843	      0.01226942	     -6.25762843	      0.01564793	     -5.94395498	    445.06049733	    -28.70343794	     -2.29169228	      0.01048487	      2.69123838	     -0.01308240	     10.60009735	      0.03167447
      1.34200000	     18.86898093	    404.86293849	     16.73425814	     -2.28195292	      0.01022655	      2.31407368	      0.01234868	     -6.29805180	      0.01574902	     -6.31891752	    445.54577147	    -28.68721892	     -2.29159240	      0.01048498	      2.69124522	     -0.01309722	     10.61210647	      0.03171036
      1.34300000	     18.63857121	    405.24512188	     16.61869802	     -2.28180417	      0.01022686	      2.31407847	      0.01243260	     -6.34085275	      0.01585605	     -6.68145497	    446.00501875	    -28.66557548	     -2.29149578	      0.01048508	      2.69125103	     -0.01311129	     10.62350283	      0.03174441
      1.34400000	     18.38496214	    405.69184327	     16.50575082	     -2.28165505	      0.01022716	      2.31408277	      0.01252097	     -6.38592287	      0.01596875	     -7.03124176	    446.43693214	    -28.63879710	     -2.29140231	      0.01048518	      2.69125592	     -0.01312459	     10.63427645	      0.03177660
      1.34500000	     18.10783053	    406.20249675	     16.39616219	     -2.28150567	      0.01022746	      2.31408652	      0.01261356	     -6.43314232	      0.01608683	     -7.36800395	    446.84026225	    -28.60715340	     -2.29131185	      0.01048528	      2.69125996	     -0.01313710	     10.64441949	      0.03180691
      1.34600000	     17.80688980	    406.77603750	     16.29069706	     -2.28135611	      0.01022776	      2.31408966	      0.01271010	     -6.48238062	      0.01620995	     -7.69152289	    447.21382347	    -28.57089111	     -2.29122424	      0.01048538	      2.69126324	     -0.01314884	     10.65392635	      0.03183532
      1.34700000	     17.48190218	    407.41099599	     16.19013443	     -2.28120644	      0.01022806	      2.31409215	      0.01281032	     -6.53349742	      0.01633778	     -8.00163846	    447.55650122	    -28.53023148	     -2.29113930	      0.01048548	      2.69126584	     -0.01315978	     10.66279369	      0.03186182
      1.34800000	     17.13269174	    408.10549450	     16.09526171	     -2.28105669	      0.01022836	      2.31409391	      0.01291394	     -6.58634335	      0.01646992	     -8.29825185	    447.86726013	    -28.48536812	     -2.29105685	      0.01048557	      2.69126781	     -0.01316994	     10.67102050	      0.03188640
      1.34900000	     16.75915806	    408.85726553	     16.00686885	     -2.28090689	      0.01022866	      2.31409490	      0.01302064	     -6.64076088	      0.01660600	     -8.58132769	    448.14515315	    -28.43646527	     -2.29097667	      0.01048567	      2.69126924	     -0.01317930	     10.67860806	      0.03190907
      1.35000000	     16.36129017	    409.66367203	     15.92574215	     -2.28075705	      0.01022895	      2.31409504	      0.01313009	     -6.69658527	      0.01674560	     -8.85089550	    448.38933127	    -28.38365641	     -2.29089855	      0.01048576	      2.69127017	     -0.01318788	     10.68556000	      0.03192984
      1.35100000	     15.93918026	    410.52172913	     15.85265791	     -2.28060717	      0.01022924	      2.31409428	      0.01324197	     -6.75364551	      0.01688828	     -9.10705026	    448.59905385	    -28.32704340	     -2.29082226	      0.01048585	      2.69127065	     -0.01319568	     10.69188231	      0.03194874
      1.35200000	     15.49303703	    411.42812737	     15.78837592	     -2.28045722	      0.01022953	      2.31409256	      0.01335593	     -6.81176529	      0.01703362	     -9.34995209	    448.77369917	    -28.26669590	     -2.29074755	      0.01048594	      2.69127073	     -0.01320272	     10.69758329	      0.03196577
      1.35300000	     15.02319803	    412.37925728	     15.73363295	     -2.28030719	      0.01022982	      2.31408983	      0.01347161	     -6.87076401	      0.01718115	     -9.57982502	    448.91277509	    -28.20265128	     -2.29067421	      0.01048604	      2.69127042	     -0.01320900	     10.70267358	      0.03198098
      1.35400000	     14.53014084	    413.37123530	     15.68913627	     -2.28015702	      0.01023011	      2.31408602	      0.01358865	     -6.93045780	      0.01733042	     -9.79695468	    449.01592957	    -28.13491486	     -2.29060198	      0.01048613	      2.69126977	     -0.01321455	     10.70716613	      0.03199441
      1.35500000	     14.01449243	    414.39993093	     15.65555726	     -2.28000669	      0.01023039	      2.31408109	      0.01370669	     -6.99066053	      0.01748097	    -10.00168512	    449.08296073	    -28.06346060	     -2.29053063	      0.01048622	      2.69126877	     -0.01321937	     10.71107619	      0.03200609
      1.35600000	     13.47703667	    415.46099520	     15.63352526	     -2.27985615	      0.01023067	      2.31407498	      0.01382536	     -7.05118481	      0.01763231	    -10.19441457	    449.11382628	    -27.98823212	     -2.29045993	      0.01048631	      2.69126744	     -0.01322350	     10.71442123	      0.03201608
      1.35700000	     12.91871945	    416.54989027	     15.62362170	     -2.27970536	      0.01023094	      2.31406765	      0.01394429	     -7.11184302	      0.01778400	    -10.37559042	    449.10865220	    -27.90914417	     -2.29038966	      0.01048640	      2.69126577	     -0.01322695	     10.71722095	      0.03202445
      1.35800000	     12.34065126	    417.66192015	     15.62637459	     -2.27955426	      0.01023122	      2.31405907	      0.01406312	     -7.17244832	      0.01793555	    -10.54570322	    449.06774023	    -27.82608438	     -2.29031961	      0.01048649	      2.69126375	     -0.01322976	     10.71949716	      0.03203125
      1.35900000	     11.74410704	    418.79226236	     15.64225347	     -2.27940282	      0.01023149	      2.31404919	      0.01418149	     -7.23281554	      0.01808650	    -10.70528019	    448.99157412	    -27.73891547	     -2.29024959	      0.01048659	      2.69126135	     -0.01323196	     10.72127369	      0.03203656
      1.36000000	     11.13052312	    419.93600049	     15.67166491	     -2.27925100	      0.01023176	      2.31403798	      0.01429903	     -7.29276220	      0.01823641	    -10.85487795	    448.88082452	    -27.64747773	     -2.29017942	      0.01048668	      2.69125856	     -0.01323356	     10.72257633	      0.03204045
      1.36100000	     10.50149128	    421.08815724	     15.71494854	     -2.27909877	      0.01023203	      2.31402541	      0.01441539	     -7.35210940	      0.01838481	    -10.99507496	    448.73635215	    -27.55159186	     -2.29010895	      0.01048678	      2.69125532	     -0.01323462	     10.72343261	      0.03204301
      1.36200000	      9.85874983	    422.24372793	     15.77237373	     -2.27894612	      0.01023229	      2.31401147	      0.01453023	     -7.41068268	      0.01853128	    -11.12646365	    448.55920939	    -27.45106208	     -2.29003804	      0.01048688	      2.69125160	     -0.01323516	     10.72387170	      0.03204432
